<?xml version="1.0" encoding="utf-8" ?>
<svg xmlns="http://www.w3.org/2000/svg" xmlns:xlink="http://www.w3.org/1999/xlink" width="1024" height="1024">
	<path fill="#DB821C" d="M480.489 130.892C480.949 130.304 481.301 129.914 481.948 129.518C489.887 124.661 495.36 125.83 504.159 125.976C504.03 127.481 504.238 127.796 503.07 128.83C500.932 129.193 497.261 127.96 495.637 129.32C499.166 129.345 502.716 129.335 506.235 129.614C509.484 129.871 513.342 130.79 516.545 130.434C534.232 134.606 550.477 148.806 559.93 163.963C561.97 167.233 564.211 170.735 565.63 174.321C566.368 176.186 568.121 185.074 569.301 185.764L569.79 184.477C570.818 189.393 572.187 194.513 572.547 199.523C572.736 202.155 572.148 212.135 573.053 213.742C591.254 219.824 608.4 228.695 623.881 240.036C625.572 238.36 629.538 228.234 631.221 225.128C639.194 210.421 650.345 197.848 663.335 187.307C678.138 175.294 694.558 169.015 712.759 164.47C717.968 163.169 721.574 161.551 727.1 162.136C732.444 159.308 739.559 158.717 745.442 160.305C746.791 160.669 748.04 161.41 749.246 162.099C753.622 161.579 758.209 163.245 762.45 164.283C782.77 169.257 798.221 175.685 814.805 188.764C818.446 191.636 822.351 194.507 825.622 197.798C837.964 210.215 849.861 229.037 856.034 245.486C857.788 250.16 858.966 255.012 860.204 259.841C861.158 263.566 862.322 267.379 862.753 271.209C863.961 281.933 864.317 301.6 862.508 312.16C859.607 329.094 848.651 353.86 837.749 367.205C813.42 396.984 785.757 412.655 747.161 416.378C742.06 416.869 736.577 417.204 731.466 416.879C731.153 423.035 733.05 429.188 733.874 435.265C734.282 438.278 734.189 441.404 734.191 444.441C737.533 451.151 737.547 457.849 737.02 465.203C737.35 472.752 738.596 479.795 739.489 487.256C739.91 490.779 739.955 494.348 740.466 497.859C740.964 501.277 741.768 504.671 742.142 508.103C742.591 512.224 742.059 517.597 743.279 521.46L743.829 521.705L744.68 520.563C745.765 524.256 745.295 528.95 745.923 532.847C747.206 540.802 749.575 549.155 751.572 556.991C752.853 562.016 754.756 566.883 756.376 571.802C766.102 601.328 780.429 627.818 799.318 652.457C803.533 657.956 808.424 662.978 812.751 668.421C822.279 680.403 829.434 691.69 831.733 707.047C832.4 706.526 832.505 706.025 832.827 705.261C832.899 706.657 832.956 708.053 832.999 709.449C836.232 714.885 835.835 729.036 834.276 735.057C833.973 736.226 833.419 737.049 832.713 738.012C830.915 753.797 820.924 767.732 810.048 778.662C797.044 791.732 783.432 798.717 765.55 802.773C759.04 804.25 751.623 803.548 744.986 803.517L718.397 803.469L603.281 803.472C600.513 809.511 599.013 816.274 596.776 822.543C591.082 838.498 581.119 856.136 568.068 867.292C553.452 879.786 533.167 890.794 513.995 893.628C505.557 894.876 494.137 894.668 485.591 893.95C462.277 891.991 435.506 875.686 420.769 857.936C416.882 853.319 413.359 848.408 410.229 843.248C404.565 833.72 395.81 814.393 396.821 803.386C358.632 804.331 320.209 803.517 281.991 803.52L247.318 803.517C241.166 803.514 234.306 804.061 228.254 803.028C217.61 801.211 204.532 794.533 195.808 788.317C184.667 780.378 176.399 771.081 169.512 759.349C168.045 756.85 166.343 754.568 165.909 751.642C165.713 750.318 165.548 749.346 165.045 748.105L164.462 748.407L164.031 750.624C160.158 731.629 158.553 716.534 165.256 697.751C173.296 675.221 186.079 665.356 199.409 647.222C227.449 609.078 248.314 563.754 254.228 516.522C255.096 509.592 256.751 503.345 256.586 496.265C256.837 490.435 259.025 487.66 259.188 483.603C259.408 480.839 259.441 478.037 259.548 475.266C259.468 466.492 258.246 446.128 262.326 439.413L262.276 437.002C262.162 432.765 262.785 428.589 263.283 424.389C265.95 414.968 265.198 400.614 269.184 392.051C270.393 384.637 272.958 377.221 275.211 370.065C290.635 321.543 320.65 278.959 361.161 248.12C367.358 243.455 373.875 238.587 380.605 234.751C390.896 228.886 400.334 223.692 411.287 219.084C414.298 217.818 421.014 216.252 423.006 213.999C424.14 212.717 423.801 200.743 424.375 197.602C426.903 183.76 432.339 169.274 440.844 158.045C449.924 146.059 465.13 132.986 480.489 130.892Z"/>
	<path fill="#32522F" d="M480.489 130.892C480.949 130.304 481.301 129.914 481.948 129.518C489.887 124.661 495.36 125.83 504.159 125.976C504.03 127.481 504.238 127.796 503.07 128.83C500.932 129.193 497.261 127.96 495.637 129.32C499.166 129.345 502.716 129.335 506.235 129.614C509.484 129.871 513.342 130.79 516.545 130.434C534.232 134.606 550.477 148.806 559.93 163.963C561.97 167.233 564.211 170.735 565.63 174.321C566.368 176.186 568.121 185.074 569.301 185.764L569.79 184.477C570.818 189.393 572.187 194.513 572.547 199.523C572.736 202.155 572.148 212.135 573.053 213.742C591.254 219.824 608.4 228.695 623.881 240.036C624.065 240.616 624.255 241.13 624.154 241.752C623.562 245.414 621.418 249.683 620.269 253.328C618.236 259.782 616.698 266.36 615.268 272.97C594.859 253.239 553.013 238.891 525.427 234.965C514.407 233.397 503.204 233.324 492.093 233.517C441.442 234.397 392.271 258.583 357.436 294.82C317.24 336.633 299.174 384.942 293.596 442.1C292.922 449.001 292.88 455.963 292.406 462.881C291.104 481.868 289.485 501.231 286.659 520.047C282.688 546.49 274.721 572.939 264.52 597.61C257.428 615.185 248.587 632.003 238.13 647.809C231.65 657.447 224.797 666.828 217.584 675.93C204.015 693.093 193.286 703.017 193.79 726.768C194.046 738.798 199.036 749.52 207.747 757.819C213.568 763.364 221.98 768.723 230.085 769.853C238.255 770.992 246.871 770.623 255.106 770.633L291.571 770.651L416.469 770.622L646.605 770.659L717.639 770.653C731.414 770.655 745.278 770.939 759.045 770.445C770.782 770.023 781.402 763.582 789.225 755.101C797.425 746.213 802.503 734.518 801.953 722.317C801.034 701.957 788.977 689.639 776.773 675.138C770.791 668.031 764.863 660.365 759.899 652.522C747.221 632.489 736.496 611.878 728.277 589.604C713.791 550.341 709.425 511.671 705.021 470.476C704.13 462.142 703.815 453.758 702.885 445.428C702.091 438.31 700.607 431.2 699.312 424.157C698.388 419.126 697.674 413.835 695.774 409.064L696.466 409.217C701.206 410.286 705.672 412.168 710.36 413.355C714.441 414.389 718.944 414.618 723.135 415.112C725.35 415.373 729.85 415.316 731.466 416.879C731.153 423.035 733.05 429.188 733.874 435.265C734.282 438.278 734.189 441.404 734.191 444.441C737.533 451.151 737.547 457.849 737.02 465.203C737.35 472.752 738.596 479.795 739.489 487.256C739.91 490.779 739.955 494.348 740.466 497.859C740.964 501.277 741.768 504.671 742.142 508.103C742.591 512.224 742.059 517.597 743.279 521.46L743.829 521.705L744.68 520.563C745.765 524.256 745.295 528.95 745.923 532.847C747.206 540.802 749.575 549.155 751.572 556.991C752.853 562.016 754.756 566.883 756.376 571.802C766.102 601.328 780.429 627.818 799.318 652.457C803.533 657.956 808.424 662.978 812.751 668.421C822.279 680.403 829.434 691.69 831.733 707.047C832.4 706.526 832.505 706.025 832.827 705.261C832.899 706.657 832.956 708.053 832.999 709.449C836.232 714.885 835.835 729.036 834.276 735.057C833.973 736.226 833.419 737.049 832.713 738.012C830.915 753.797 820.924 767.732 810.048 778.662C797.044 791.732 783.432 798.717 765.55 802.773C759.04 804.25 751.623 803.548 744.986 803.517L718.397 803.469L603.281 803.472C600.513 809.511 599.013 816.274 596.776 822.543C591.082 838.498 581.119 856.136 568.068 867.292C553.452 879.786 533.167 890.794 513.995 893.628C505.557 894.876 494.137 894.668 485.591 893.95C462.277 891.991 435.506 875.686 420.769 857.936C416.882 853.319 413.359 848.408 410.229 843.248C404.565 833.72 395.81 814.393 396.821 803.386C358.632 804.331 320.209 803.517 281.991 803.52L247.318 803.517C241.166 803.514 234.306 804.061 228.254 803.028C217.61 801.211 204.532 794.533 195.808 788.317C184.667 780.378 176.399 771.081 169.512 759.349C168.045 756.85 166.343 754.568 165.909 751.642C165.713 750.318 165.548 749.346 165.045 748.105L164.462 748.407L164.031 750.624C160.158 731.629 158.553 716.534 165.256 697.751C173.296 675.221 186.079 665.356 199.409 647.222C227.449 609.078 248.314 563.754 254.228 516.522C255.096 509.592 256.751 503.345 256.586 496.265C256.837 490.435 259.025 487.66 259.188 483.603C259.408 480.839 259.441 478.037 259.548 475.266C259.468 466.492 258.246 446.128 262.326 439.413L262.276 437.002C262.162 432.765 262.785 428.589 263.283 424.389C265.95 414.968 265.198 400.614 269.184 392.051C270.393 384.637 272.958 377.221 275.211 370.065C290.635 321.543 320.65 278.959 361.161 248.12C367.358 243.455 373.875 238.587 380.605 234.751C390.896 228.886 400.334 223.692 411.287 219.084C414.298 217.818 421.014 216.252 423.006 213.999C424.14 212.717 423.801 200.743 424.375 197.602C426.903 183.76 432.339 169.274 440.844 158.045C449.924 146.059 465.13 132.986 480.489 130.892Z"/>
	<defs>
		<linearGradient id="gradient_0" gradientUnits="userSpaceOnUse" x1="262.11353" y1="465.92636" x2="258.78391" y2="459.37173">
			<stop offset="0" stop-color="#4C6446"/>
			<stop offset="1" stop-color="#668560"/>
		</linearGradient>
	</defs>
	<path fill="url(#gradient_0)" d="M262.326 439.413C263.953 450.741 261.876 462.185 260.381 473.345C260.265 474.211 260.052 474.574 259.548 475.266C259.468 466.492 258.246 446.128 262.326 439.413Z"/>
	<path fill="#E0DFDA" d="M480.489 130.892C480.949 130.304 481.301 129.914 481.948 129.518C489.887 124.661 495.36 125.83 504.159 125.976C504.03 127.481 504.238 127.796 503.07 128.83C500.932 129.193 497.261 127.96 495.637 129.32C490.466 129.401 485.506 130.739 480.489 130.892Z"/>
	<path fill="#A3A998" d="M832.999 709.449C836.232 714.885 835.835 729.036 834.276 735.057C833.973 736.226 833.419 737.049 832.713 738.012C832.177 731.618 831.683 715.28 832.999 709.449Z"/>
	<path fill="#A3A998" d="M737.02 465.203C736.774 464.992 736.499 464.809 736.282 464.568C734.058 462.094 733.748 447.792 734.191 444.441C737.533 451.151 737.547 457.849 737.02 465.203Z"/>
	<path fill="#55703E" d="M259.188 483.603C260.894 486.798 259.709 494.619 258.734 498.118C258.556 498.754 258.281 499.279 257.974 499.859L257.319 500.021C256.921 498.763 256.747 497.566 256.586 496.265C256.837 490.435 259.025 487.66 259.188 483.603Z"/>
	<path fill="#55703E" d="M432.232 803.227C448.202 802.118 464.719 802.963 480.755 802.961L566.904 803.058C564.241 817.691 557.013 831.105 546.256 841.376C543.388 843.857 540.505 846.308 537.424 848.524C522.538 859.23 505.299 862.975 487.237 859.893C469.005 856.781 453.155 845.115 442.75 830.15C439.478 825.444 430.191 809.12 431.14 803.71L432.232 803.227Z"/>
	<path fill="#DB821C" d="M494.1 163.117C503.183 162.468 511.543 164.69 519.02 169.956C530.993 178.388 536.479 192.205 538.838 206.216C527.466 205.06 516.634 202.966 505.125 202.83C489.083 202.69 474.588 203.866 458.747 206.181L458.798 205.629C459.483 197.323 462.524 188.378 466.976 181.319C473.167 171.501 482.906 165.612 494.1 163.117Z"/>
	<path fill="#E0DFDA" d="M727.1 162.136C732.444 159.308 739.559 158.717 745.442 160.305C746.791 160.669 748.04 161.41 749.246 162.099C745.185 163.311 731.465 162.767 727.1 162.136Z"/>
	<path fill="#FCEABC" d="M372.156 651.416C371.876 651.301 371.351 651.103 371.061 650.934C368.208 649.271 365.367 645.786 362.807 643.605C340.908 624.939 322.058 597.584 315.233 569.376C312.902 559.745 310.556 549.732 309.734 539.86C306.963 506.606 317.365 472.925 334.806 444.793C352.35 416.496 380.174 392.168 410.225 377.816C425.686 370.432 443.054 364.873 459.752 361.122C465.3 359.875 471.068 359.455 476.714 358.83C483.319 358.099 489.977 357.24 496.628 357.148C503.212 357.058 509.738 357.733 516.283 358.34C522.595 358.925 529.066 359.309 535.312 360.4C559.246 364.582 584.22 373.963 604.698 387.013C641.768 410.637 670.433 450.295 679.841 493.415C688.925 535.047 683.86 575.973 660.444 612.091C651.681 625.609 645.261 633.652 633.548 644.85C631.248 647.049 628.71 650.303 625.588 650.969C621.483 656.043 615.602 659.598 610.171 663.106C584.929 679.411 554.716 690.695 524.772 693.828C479.916 698.522 436.225 691.214 396.762 668.588C389.626 664.497 381.849 659.968 375.534 654.687C374.321 653.691 373.191 652.597 372.156 651.416Z"/>
	<path fill="#55703E" d="M372.156 651.416C371.876 651.301 371.351 651.103 371.061 650.934C368.208 649.271 365.367 645.786 362.807 643.605C340.908 624.939 322.058 597.584 315.233 569.376C312.902 559.745 310.556 549.732 309.734 539.86C306.963 506.606 317.365 472.925 334.806 444.793C352.35 416.496 380.174 392.168 410.225 377.816C425.686 370.432 443.054 364.873 459.752 361.122C465.3 359.875 471.068 359.455 476.714 358.83C483.319 358.099 489.977 357.24 496.628 357.148C503.212 357.058 509.738 357.733 516.283 358.34C522.595 358.925 529.066 359.309 535.312 360.4C559.246 364.582 584.22 373.963 604.698 387.013C641.768 410.637 670.433 450.295 679.841 493.415C688.925 535.047 683.86 575.973 660.444 612.091C651.681 625.609 645.261 633.652 633.548 644.85C631.248 647.049 628.71 650.303 625.588 650.969C631.756 636.872 635.073 621.44 629.342 606.625C624.119 593.122 612.418 583.355 599.394 577.684C579.363 568.963 551.871 570.692 542.426 546.685C538.011 535.461 538.224 520.98 543.223 509.978C547.465 500.645 555.732 493.743 565.286 490.288C583.372 483.747 607.41 487.453 624.424 495.59C635.213 500.749 645.998 508.326 654.167 517.092C653.865 492.469 642.503 466.673 624.782 449.545C605.52 430.928 581.369 423.738 555.05 424.311C538.888 424.663 523.992 428.194 510.033 436.529C505.788 439.064 501.899 442.204 497.589 444.614C481.457 428.981 459.283 423.66 437.348 424.002C411.804 424.401 388.679 432.548 370.667 451.135C353.919 468.718 343.891 491.633 342.341 515.866C363.653 497.063 387.917 485.537 416.867 487.217C429.644 487.959 441.281 491.48 449.939 501.438C457.358 509.97 459.922 521.904 459.012 532.971C458.175 543.142 454.237 552.274 446.366 558.943C435.447 568.195 420.534 569.128 407.313 572.913C385.561 579.14 368.114 594.394 365.858 617.861C364.786 629.011 367.468 641.31 372.156 651.416Z"/>
	<path fill="#32522F" d="M588.911 526.716C597.738 524.321 606.836 529.536 609.23 538.363C611.625 547.19 606.41 556.287 597.583 558.681C588.756 561.075 579.66 555.861 577.265 547.034C574.871 538.208 580.085 529.111 588.911 526.716Z"/>
	<path fill="#32522F" d="M404.27 525.657C412.978 524.352 421.11 530.309 422.492 539.005C423.873 547.701 417.988 555.885 409.305 557.343C400.513 558.82 392.203 552.845 390.804 544.04C389.405 535.235 395.453 526.978 404.27 525.657Z"/>
	<path fill="#32522F" d="M556.545 596.497C559.368 596.273 561.792 596.337 564.301 597.801C566.604 599.145 568.263 601.587 568.934 604.145C569.75 607.259 568.867 610.345 567.193 613.011C558.76 626.438 537.874 635.096 523.021 638.176C517.608 639.299 511.796 639.441 506.27 639.546C482.73 639.994 461.691 634.044 441.986 621.102C439.279 619.031 436.023 616.724 434.055 613.93C432.305 611.43 431.644 608.328 432.222 605.332C432.777 602.478 434.525 599.998 437.025 598.515C439.267 597.209 442.217 596.759 444.726 597.487C449.127 598.763 452.664 602.816 456.477 605.252C463.089 609.475 471.747 612.942 479.255 615.011C498.461 620.302 523.528 619.616 540.794 608.646C546.238 605.188 550.459 599.868 556.059 596.755C556.22 596.666 556.383 596.583 556.545 596.497Z"/>
	<path fill="#32522F" d="M490.859 547.676C499.965 545.964 516.363 547.389 524.501 552.238C527.825 554.218 530.669 557.172 531.516 561.052C532.195 564.159 531.711 567.281 529.98 569.966C525.469 576.961 515.891 579.373 508.271 580.85C497.512 582.19 485.154 581.279 475.863 575.164C472.184 572.743 468.949 569.267 468.136 564.802C467.597 561.843 468.253 558.941 470.041 556.518C474.667 550.249 483.655 548.673 490.859 547.676Z"/>
	<path fill="#E0DFDA" fill-opacity="0.98823529" d="M504.159 125.976C511.249 125.96 510.743 128.501 516.545 130.434C513.342 130.79 509.484 129.871 506.235 129.614C502.716 129.335 499.166 129.345 495.637 129.32C497.261 127.96 500.932 129.193 503.07 128.83C504.238 127.796 504.03 127.481 504.159 125.976Z"/>
</svg>
