<?xml version="1.0" encoding="utf-8" ?>
<svg xmlns="http://www.w3.org/2000/svg" xmlns:xlink="http://www.w3.org/1999/xlink" width="1024" height="1024">
	<path fill="#DC821C" d="M491.503 195.847C496.138 196.404 501.227 195.839 505.924 195.734C513.014 195.59 520.107 195.588 527.197 195.727C530.583 195.794 534.673 195.68 537.924 196.631C539.541 197.889 550.234 197.616 553.055 197.955C562.746 199.12 572.299 201.009 581.907 202.669C586.28 203.424 590.872 203.497 595.141 204.733C607.25 208.239 619.736 211.734 631.621 215.906C646.106 220.991 660.6 227.79 674.359 234.584C679.838 237.289 685.156 240.438 690.325 243.693C693.117 245.451 696.045 247.75 699.045 249.091C705.208 253.83 711.365 258.253 718.001 262.328C723.554 266.413 729.022 270.612 734.401 274.924C735.944 276.309 738.03 277.391 739.429 278.781C744.142 282.819 749.408 286.266 753.9 290.539C761.78 298.034 768.269 305.996 775.302 314.209C778.592 318.052 782.22 321.592 785.367 325.558C825.719 376.425 851.037 434.272 859.209 498.731C859.834 503.663 860.715 508.527 861.081 513.494C861.394 517.734 861.284 521.994 861.554 526.235C862.117 535.106 863.233 543.831 862.888 552.764C862.742 556.558 861.76 560.232 861.424 563.998C860.995 568.81 861.287 573.689 860.888 578.517C859.822 591.405 856.992 608.589 854.161 621.228C852.06 630.609 849.01 639.949 845.991 649.078C833.928 685.561 817.229 719.114 794.728 750.283C790.659 755.92 786.607 761.832 782.047 767.065C778.687 770.92 774.876 774.398 771.547 778.277C769.352 780.835 767.842 783.92 765.786 786.583C762.754 790.511 758.405 794.213 754.818 797.669C750.496 801.832 745.407 805.049 740.851 808.931C728.035 819.85 714.881 830.294 700.762 839.538C672.62 857.965 639.889 872.287 607.628 881.501C597.763 884.319 578.469 889.874 568.918 890.558C564.984 890.84 560.873 890.371 557.009 891.19C556.951 891.476 556.913 891.766 556.834 892.047C556.76 892.313 556.645 892.566 556.55 892.826C548.68 894.06 540.729 893.112 532.828 893.51C531.879 895.032 531.515 895.339 529.734 895.701C523.492 896.971 496.353 896.556 490.947 894.296C485.039 892.494 478.276 893.876 472.185 893.156C461.163 891.853 448.03 889.547 437.138 887.268C430.519 885.883 423.974 883.851 417.463 882.02C369.055 868.403 326.308 844.818 287.558 812.936C283.333 809.459 278.868 806.195 274.853 802.476C225.109 756.609 189.264 697.68 171.408 632.416C169.659 626.029 167.597 619.517 166.329 613.021C165.514 608.844 165.23 604.531 164.547 600.318C163.666 594.882 162.693 589.664 162.447 584.144C160.044 575.467 160.085 566.42 159.63 557.48C159.987 548.324 159.774 539.103 159.776 529.939C159.63 526.671 159.097 522.621 160.289 519.531C160.475 513.902 160.38 509.094 162.729 503.829C161.982 498.077 162.425 492.953 164.974 487.719C165.178 484.243 165.112 480.68 165.603 477.234C166.271 472.542 168.009 467.92 169.168 463.326C170.355 458.619 171.193 453.818 172.502 449.142C176.08 436.365 180.769 423.477 185.925 411.237C215.02 341.489 265.627 282.853 330.373 243.874C343.996 235.772 358.395 228.876 372.874 222.463C390.026 214.867 408.406 211.355 425.653 204.31C427.9 203.488 430.287 203.503 432.655 203.363C434.187 203.521 435.639 203.12 437.13 202.813C443.553 199.046 476.724 197.831 486.16 197.399C486.856 197.413 487.579 197.209 488.264 197.084C489.293 196.595 490.434 196.247 491.503 195.847Z"/>
	<path fill="#EC9A38" d="M490.947 894.296C496.86 891.599 525.757 892.194 532.828 893.51C531.879 895.032 531.515 895.339 529.734 895.701C523.492 896.971 496.353 896.556 490.947 894.296Z"/>
	<path fill="#EC9A38" d="M159.63 557.48L160.653 557.473C164.386 564.637 163.629 576.261 162.447 584.144C160.044 575.467 160.085 566.42 159.63 557.48Z"/>
	<path fill="#ECAC62" d="M162.729 503.829C163.727 508.983 163.116 514.896 162.98 520.145L160.289 519.531C160.475 513.902 160.38 509.094 162.729 503.829Z"/>
	<path fill="#EC9A38" d="M160.289 519.531L162.98 520.145C162.886 522.742 163.189 527.25 161.047 529.074C160.591 529.463 160.269 529.637 159.776 529.939C159.63 526.671 159.097 522.621 160.289 519.531Z"/>
	<path fill="#31522F" d="M503.959 255.64C664.95 251.28 799.065 378.113 803.69 539.097C808.315 700.081 681.703 834.404 520.726 839.294C359.375 844.195 224.671 717.224 220.035 555.865C215.4 394.506 342.592 260.011 503.959 255.64Z"/>
	<path fill="#FCEABC" d="M253.516 528.438C256.443 468.377 281.559 412.206 322.215 368.213C366.422 320.377 432.836 290.439 497.838 287.881C497.782 297.875 497.105 326.522 503.203 333.63C505.26 336.027 508.085 337.25 511.214 337.394C514.703 337.553 518.075 336.599 520.598 334.109C522.464 332.268 523.659 329.889 524.362 327.385C526.819 318.625 526.287 298.294 526.477 288.163C588.933 289.409 649.772 318.756 694.25 361.695C703.27 370.402 711.892 379.701 719.444 389.719C748.687 428.512 769.785 480.568 770.7 529.502C761.218 529.541 739.377 528.361 732.287 534.232C729.894 536.214 728.428 538.842 728.218 541.962C727.968 545.657 729.209 549.877 731.699 552.658C733.148 554.277 734.94 555.332 737.022 555.929C744.698 558.132 763.265 557.876 772.205 558.517C770.906 564.546 770.442 570.749 769.648 576.86C768.643 584.31 767.374 591.722 765.842 599.082C757.05 641.32 737 680.541 710.167 714.092C674.393 759.08 624.452 790.644 568.466 803.652C563.477 804.798 558.316 805.217 553.262 806.006C546.591 807.048 540.001 808.342 533.278 809.056C512.685 811.244 492.58 809.831 472.226 806.412C466.433 805.439 460.425 804.859 454.713 803.533C416.852 794.747 380.59 775.986 350.45 751.589C337.744 741.304 323.424 727.686 313.925 714.444C272.982 660.903 259.801 625.174 252.489 558.511C262.06 557.783 284.802 558.945 291.921 554.193C294.803 552.269 296.741 549.491 297.299 546.052C297.904 542.327 297.193 538.153 294.775 535.176C292.95 532.929 290.379 531.5 287.618 530.735C282.722 529.378 277.061 529.879 271.983 529.645C265.82 529.359 259.663 528.957 253.516 528.438Z"/>
	<path fill="#DC821C" d="M557.035 530.632C563.102 525.867 569.076 520.975 575.082 516.134C625.223 531.575 666.73 559.537 691.743 606.793C705.381 632.559 711.021 659.739 710.903 688.695C710.886 693.07 709.171 711.688 710.167 714.092C674.393 759.08 624.452 790.644 568.466 803.652C563.477 804.798 558.316 805.217 553.262 806.006C546.591 807.048 540.001 808.342 533.278 809.056C512.685 811.244 492.58 809.831 472.226 806.412C466.433 805.439 460.425 804.859 454.713 803.533C416.852 794.747 380.59 775.986 350.45 751.589C337.744 741.304 323.424 727.686 313.925 714.444C314.475 706.123 313.34 697.387 313.076 689.028C312.374 666.877 315.706 646.04 323.679 625.347C341.373 579.427 376.312 546.325 420.828 526.543C425.255 524.576 429.93 522.47 434.594 521.168C439.224 519.875 445.018 519.317 449.312 517.296C449.568 517.175 449.82 517.047 450.074 516.922C455.911 520.538 461.455 524.7 467.089 528.627C466.693 540.048 469.203 551.237 476.576 560.307C484.06 569.513 496.545 576.689 508.43 577.757C519.841 578.782 531.612 574.276 540.281 566.934C551.192 557.694 555.894 544.526 557.035 530.632Z"/>
	<path fill="#31522F" d="M458.876 702.575C465.527 703.166 470.478 708.398 476.279 711.206C485.536 715.687 501.29 718.554 511.504 718.444C520.293 718.349 538.676 714.941 547.29 712.435C554.713 710.275 565.672 701.878 572.791 702.605C576.122 702.945 579.107 704.777 581.079 707.461C583.125 710.231 583.918 713.732 583.266 717.114C582.217 722.362 577.689 725.317 573.492 727.974C568.265 730.69 562.885 733.265 557.324 735.225C529.47 745.042 493.614 747.107 466.517 733.915C460.01 730.747 449.823 725.744 447.475 718.321C446.465 715.13 447.071 711.718 448.768 708.873C450.969 705.183 454.854 703.464 458.876 702.575Z"/>
	<path fill="#31522F" d="M456.106 624.993C457.774 624.879 459.248 624.807 460.837 625.413C464.503 626.813 467.962 630.108 469.422 633.764C470.89 637.44 470.319 641.427 468.602 644.911C463.117 656.044 448.697 663.295 437.414 666.772C423.433 671.081 409.858 667.352 397.321 660.777C393.362 658.434 388.979 655.437 386.635 651.393C385.013 648.594 384.537 645.538 385.452 642.416C386.517 638.783 389.21 635.44 392.624 633.76C400.65 629.811 409.156 639.558 416.659 641.819C425.848 644.589 436.651 642.269 443.776 635.793C447.888 632.055 451.077 627.616 456.106 624.993Z"/>
	<path fill="#31522F" d="M565.55 625.553C575.859 624.978 582.212 638.79 592.742 641.589C613.521 647.113 617.984 632.643 628.741 633.139C632.098 633.294 635.668 635.233 637.831 637.773C640.213 640.57 640.982 643.431 640.579 647.064C639.983 652.439 635.843 655.61 631.905 658.735C628.534 660.978 625.019 662.823 621.29 664.4C607.762 670.12 594.843 669.653 581.295 664.129C572.242 660.438 560.841 653.806 557.07 644.249C555.643 640.633 555.121 636.224 556.814 632.605C558.488 629.025 561.968 626.863 565.55 625.553Z"/>
	<path fill="#31522F" d="M542.788 497.703C552.786 491.161 566.247 478.731 575.819 470.847L640.267 417.908C648.58 411.007 662.321 398.198 670.96 393.236C674.403 391.258 678.159 390.179 682.146 390.287C686.568 390.406 690.589 392.064 693.566 395.377C696.486 398.628 697.555 403.09 697.23 407.378C696.928 411.361 695.476 415.244 692.898 418.301C685.527 427.044 668.34 439.596 658.823 447.413C630.957 470.301 602.376 492.585 575.082 516.134C569.076 520.975 563.102 525.867 557.035 530.632C555.894 544.526 551.192 557.694 540.281 566.934C531.612 574.276 519.841 578.782 508.43 577.757C496.545 576.689 484.06 569.513 476.576 560.307C469.203 551.237 466.693 540.048 467.089 528.627C461.455 524.7 455.911 520.538 450.074 516.922C432.45 502.985 414.066 489.834 395.945 476.552C386.754 469.815 376.636 463.23 368.283 455.505C363.911 451.461 361.461 447.213 361.367 441.112C361.3 436.712 362.642 432.398 365.781 429.224C368.975 425.994 373.396 424.499 377.883 424.508C381.54 424.515 384.203 425.362 387.313 427.141C394.088 431.017 400.265 436.147 406.508 440.824L430.543 458.585L462.58 482.504C469.389 487.602 476.692 492.507 482.771 498.462C489.01 494.154 495.152 490.509 502.598 488.731C517.012 485.289 530.574 490.183 542.788 497.703Z"/>
	<path fill="#DC821C" d="M509.593 512.608C520.507 511.275 530.452 519 531.862 529.905C533.271 540.81 525.617 550.809 514.722 552.295C503.719 553.796 493.598 546.048 492.174 535.034C490.751 524.02 498.569 513.954 509.593 512.608Z"/>
	<path fill="#56713F" d="M773.475 135.45C788.299 126.528 824.667 130.993 840.817 135.028C841.916 135.303 843.004 135.609 844.12 135.809C851.797 137.121 858.243 139.743 864.24 144.713C864.879 155.033 864.943 166.707 863.557 176.985C862.886 181.956 861.449 186.809 860.767 191.748C857.569 203.496 853.235 215.467 846.808 225.872C839.161 238.198 826.877 250.915 814.751 258.984C809.685 262.355 804.232 265.042 798.75 267.657C795.508 269.204 791.624 271.475 788.139 272.155C787.25 272.328 786.393 272.385 785.494 272.467C783.643 272.638 781.315 272.772 779.702 273.683L781.49 274.702C777.787 275.856 773.748 274.998 770.039 275.848C767.999 276.316 766.794 277.971 764.511 278.157C759.95 278.528 741.408 277.961 739.429 278.781C738.03 277.391 735.944 276.309 734.401 274.924C729.022 270.612 723.554 266.413 718.001 262.328C711.365 258.253 705.208 253.83 699.045 249.091C698.095 245.717 698.12 242.185 697.989 238.708C696.337 233.495 695.44 228.079 698.055 223.034C698.898 219.383 698.77 215.556 699.63 211.789C704.484 190.524 714.878 173.309 730.655 158.326C738.933 150.463 761.923 135.144 773.475 135.45Z"/>
	<path fill="#31522F" d="M787.995 195.309C790.008 197.405 791.594 199.524 793.194 201.944C778.523 216.963 760.743 228.948 748.583 246.343C744.953 251.534 741.803 257.272 739.202 263.043C738.051 265.596 735.838 273.176 734.401 274.924C729.022 270.612 723.554 266.413 718.001 262.328C729.37 237.69 747.204 225.1 768.117 209.61C774.648 204.772 780.957 199.406 787.995 195.309Z"/>
	<path fill="#AEB398" d="M773.475 135.45C788.299 126.528 824.667 130.993 840.817 135.028C841.916 135.303 843.004 135.609 844.12 135.809C838.141 137.021 829.181 133.203 822.591 133.025C810.683 132.705 798.315 132.273 786.435 133.21C782.193 133.545 778.537 135.329 774.161 135.438L773.475 135.45Z"/>
	<path fill="#AEB398" d="M698.055 223.034L698.753 223.505C699.288 227.908 699.169 234.426 697.989 238.708C696.337 233.495 695.44 228.079 698.055 223.034Z"/>
	<path fill="#31522F" d="M449.169 146.817C452.207 141.629 456.325 137.154 461.243 133.694C463.423 132.17 465.953 130.602 468.594 130.143C476.056 128.849 551.363 128.986 558.192 130.349C566.343 131.975 573.137 140.068 577.558 146.525C580.474 151.404 580.259 155.569 580.069 161.043C579.529 162.242 579.008 163.448 578.405 164.617C576.68 168.888 574.456 172.584 571.331 175.991C561.813 184.285 550.08 184.949 538.068 184.447C538.563 188.598 538.879 192.512 537.924 196.631C534.673 195.68 530.583 195.794 527.197 195.727C520.107 195.588 513.014 195.59 505.924 195.734C501.227 195.839 496.138 196.404 491.503 195.847C491.245 193.653 491.17 191.475 491.094 189.271C491.372 187.843 491.791 186.529 491.275 185.113C489.583 184.231 487.854 184.573 485.973 184.625C477.753 184.856 471.042 183.957 463.13 181.765L461.052 180.607C457.393 178.057 454.459 175.224 451.71 171.716L451.22 171.099C450.677 169.849 449.838 168.748 449.074 167.624C446.304 162.203 446.039 157.391 447.449 151.545L449.169 146.817Z"/>
	<path fill="#56713F" d="M449.169 146.817C450.428 150.293 450.048 163.839 449.074 167.624C446.304 162.203 446.039 157.391 447.449 151.545L449.169 146.817Z"/>
	<path fill="#56713F" d="M577.558 146.525C580.474 151.404 580.259 155.569 580.069 161.043C579.529 162.242 579.008 163.448 578.405 164.617C577.174 161.009 576.814 150.332 577.558 146.525Z"/>
</svg>
