<?xml version="1.0" encoding="utf-8" ?>
<svg xmlns="http://www.w3.org/2000/svg" xmlns:xlink="http://www.w3.org/1999/xlink" width="1024" height="1024">
	<path fill="#54703E" d="M656.262 133.872C658.332 131.372 659.263 131.212 662.458 130.907C665.743 130.594 672.301 130.082 674.945 132.061C675.438 132.43 675.896 133.067 676.274 133.532L678.598 134.458C689.082 136.242 696.74 142.844 703.938 150.143C714.764 161.354 717.174 172.789 716.872 187.902C716.824 190.293 716.773 192.734 716.499 195.11C728.214 193.646 749.465 193.395 760.542 197.135C763.963 197.59 767.397 197.56 770.752 198.426C791.016 203.66 815.322 219.942 828.061 236.562C837.319 248.641 844.928 261.888 848.894 276.668C849.912 280.46 850.219 284.32 851.167 288.049L851.996 291.788C854.942 302.203 853.529 318.702 853.521 329.836L853.485 376.564L853.484 460.835C853.484 475.37 853.838 490.001 853.404 504.527C853.638 522.239 853.529 539.965 853.534 557.679C853.537 567.467 854.119 577.588 853.332 587.323C853.183 589.156 852.719 590.858 852.126 592.591C854.829 592.511 857.693 592.624 860.364 592.231C865.863 589.13 886.641 589.079 893.37 589.741L896.843 593.017L897.06 593.311C898.061 594.449 899.118 595.558 899.962 596.82C900.034 603.187 901.295 620.193 899.299 625.39C898.802 625.877 898.38 626.338 897.78 626.697L897.73 627.192C897.384 630.934 897.595 634.69 897.283 638.432C896.727 645.107 894.005 661.182 891.687 667C891.596 667.17 891.501 667.338 891.412 667.51C888.75 672.648 887.696 678.625 885.499 684.001C878.983 699.937 870.733 714.239 859.976 727.691C857.817 730.391 855.649 733.558 853.031 735.809C853.687 748.746 854.481 762.921 853.129 775.8C852.563 781.187 851.266 786.589 850.171 791.892C849.303 796.089 848.599 800.512 846.592 804.338C844.993 808.011 843.716 811.749 841.977 815.373C831.939 836.286 819.552 848.035 800.818 860.677C797.329 861.742 793.693 864.228 790.346 865.779C782.243 869.535 771.778 873.075 762.931 874.214C756.317 875.066 748.941 874.387 742.231 874.36L703.744 874.359L566.447 874.367L340.611 874.361L270.604 874.381C257.646 874.412 244.404 875.019 231.479 874.339C207.332 873.069 181.14 857.553 165.336 839.959C150.676 823.638 142.212 804.292 138.953 782.68C137.373 772.207 138.055 761.235 138.08 750.649L138.048 710.5L138.064 598.227L138.063 397.944L138.044 332.658C138.032 320.513 137.504 308.116 138.212 295.998C139.943 266.39 154.651 240.89 176.502 221.507C187.588 211.674 213.161 196.893 228.359 197.805C236.948 192.827 261.571 193.9 271.651 195.354C268.863 185.916 270.868 176.294 274.103 167.291C275.5 160.995 282.533 151.514 287.133 146.999C292.883 141.355 304.128 133.743 312.407 133.81C314.832 131.019 316.728 130.942 320.216 130.679C324.162 130.381 329.341 130.692 332.394 133.401C332.713 133.684 333.016 133.984 333.335 134.267C333.371 134.299 333.413 134.324 333.452 134.353C343.226 135.319 355.045 142.808 361.186 150.316C364.573 154.457 368.848 160.944 370.307 166.074L370.586 167.707L371.077 167.862L371.216 167.526C372.494 169.19 372.294 171.022 372.326 173.02L372.481 174.596C375.079 180.427 374.656 188.563 375.156 194.914C388.187 193.53 402.092 194.512 415.232 194.512L492.391 194.517L570.582 194.503C585.453 194.493 601.335 193.384 616.066 195.397C615.892 189.467 615.429 183.419 615.644 177.496C616.078 165.575 624.009 153.588 632.52 145.723C638.072 140.593 648.453 133.544 656.262 133.872Z"/>
	<path fill="#32532F" d="M656.262 133.872C658.332 131.372 659.263 131.212 662.458 130.907C665.743 130.594 672.301 130.082 674.945 132.061C675.438 132.43 675.896 133.067 676.274 133.532L678.598 134.458C689.082 136.242 696.74 142.844 703.938 150.143C714.764 161.354 717.174 172.789 716.872 187.902C716.824 190.293 716.773 192.734 716.499 195.11L716.717 198.154C716.769 199.134 716.706 199.932 716.533 200.885C715.652 205.731 716.109 211.397 716.082 216.342C716.029 225.613 716.027 234.884 716.075 244.155C716.097 250.476 716.391 256.945 715.611 263.226C713.899 277.014 705.887 289.548 694.629 297.546C684.303 304.937 671.447 307.886 658.931 305.734C644.908 303.268 633.225 295.714 625.102 284.051C621.289 278.578 618.637 272.63 617.274 266.094C614.929 254.85 615.992 242.17 616.003 230.693C616.013 220.62 615.686 210.395 616.113 200.339L616.237 198.128L616.066 195.397C615.892 189.467 615.429 183.419 615.644 177.496C616.078 165.575 624.009 153.588 632.52 145.723C638.072 140.593 648.453 133.544 656.262 133.872Z"/>
	<path fill="#A2AA8D" d="M656.262 133.872C658.332 131.372 659.263 131.212 662.458 130.907C665.743 130.594 672.301 130.082 674.945 132.061C675.438 132.43 675.896 133.067 676.274 133.532L678.598 134.458C671.187 134.078 663.623 134.682 656.262 133.872Z"/>
	<path fill="#DE841D" d="M654.101 179.842C654.994 176.834 657.182 174.287 659.89 172.688C663.039 170.829 667.245 170.346 670.741 171.351C674.954 172.563 678.181 175.517 680.156 179.373C681.304 181.613 681.41 184.942 681.531 187.44C681.957 196.253 682.28 257.883 680.753 262.133C679.364 265.998 676.247 269.212 672.528 270.902C668.874 272.562 664.253 272.544 660.579 270.952C657.385 269.569 654.848 266.983 653.721 263.677C653.343 262.57 652.982 261.418 652.876 260.249C651.423 252.959 652.442 230.276 652.463 221.472C652.503 210.081 650.778 190.195 654.101 179.842Z"/>
	<path fill="#C98937" d="M652.463 221.472C652.503 210.081 650.778 190.195 654.101 179.842C654.62 190.244 654.637 200.823 654.602 211.243C654.587 215.85 654.89 220.757 654.446 225.33C654.749 233.695 655.026 242.304 654.331 250.648C654.061 253.895 653.227 257.028 652.876 260.249C651.423 252.959 652.442 230.276 652.463 221.472Z"/>
	<path fill="#32532F" d="M312.407 133.81C314.832 131.019 316.728 130.942 320.216 130.679C324.162 130.381 329.341 130.692 332.394 133.401C332.713 133.684 333.016 133.984 333.335 134.267C333.371 134.299 333.413 134.324 333.452 134.353C343.226 135.319 355.045 142.808 361.186 150.316C364.573 154.457 368.848 160.944 370.307 166.074L370.586 167.707L371.077 167.862L371.216 167.526C372.494 169.19 372.294 171.022 372.326 173.02C370.809 180.429 372.073 189.022 371.849 196.589C371.944 197.5 371.946 198.317 372.306 199.16C372.889 209.089 372.496 219.302 372.455 229.254C372.406 241.553 373.342 257.59 370.624 269.437C369.325 275.103 366.749 280.226 363.386 284.946C355.229 296.394 343.127 303.718 329.268 305.885C316.883 307.821 303.41 303.928 293.429 296.513C274.541 282.48 272.981 265.808 272.898 243.85L272.881 215.613C272.871 210.107 273.183 204.042 272.274 198.607C272.219 198.281 272.157 197.957 272.098 197.631L272.21 196.253L271.651 195.354C268.863 185.916 270.868 176.294 274.103 167.291C275.5 160.995 282.533 151.514 287.133 146.999C292.883 141.355 304.128 133.743 312.407 133.81Z"/>
	<path fill="#54703E" d="M271.651 195.354C268.863 185.916 270.868 176.294 274.103 167.291C274.376 167.966 274.627 168.579 274.682 169.315C274.872 171.864 274.285 193.714 273.549 195.17C273.274 195.715 272.704 195.935 272.21 196.253L271.651 195.354Z"/>
	<path fill="#A2AA8D" d="M312.407 133.81C314.832 131.019 316.728 130.942 320.216 130.679C324.162 130.381 329.341 130.692 332.394 133.401C332.713 133.684 333.016 133.984 333.335 134.267C333.371 134.299 333.413 134.324 333.452 134.353C330.078 135 316.376 134.257 312.407 133.81Z"/>
	<path fill="#DE841D" d="M319.644 171.076C322.164 170.78 324.533 170.692 326.993 171.435C331.059 172.662 334.442 175.337 336.385 179.139C337.615 181.547 337.769 184.448 337.926 187.113C338.427 195.599 338.853 258.894 337.154 263.122C335.304 267.723 331.383 270.276 327.013 272.143C324.032 272.798 321.423 272.796 318.481 271.848C314.856 270.68 311.765 268.279 310.135 264.786C308.954 262.254 308.766 258.538 308.609 255.767C308.1 246.78 307.664 185.16 309.691 179.926C311.299 175.778 315.796 172.917 319.644 171.076Z"/>
	<path fill="#6A7857" d="M371.849 196.589C372.073 189.022 370.809 180.429 372.326 173.02L372.481 174.596C375.079 180.427 374.656 188.563 375.156 194.914C388.187 193.53 402.092 194.512 415.232 194.512L492.391 194.517L570.582 194.503C585.453 194.493 601.335 193.384 616.066 195.397L616.237 198.128L616.113 200.339C603.025 200.87 589.845 200.68 576.743 200.732L489.962 200.675L416.11 200.77C404.885 200.747 382.39 202.08 372.306 199.16C371.946 198.317 371.944 197.5 371.849 196.589Z"/>
	<path fill="#32532F" d="M371.849 196.589C373.205 197.588 374.055 198.006 375.747 198.122C388.737 199.011 402.185 198.262 415.239 198.239L487.339 198.261L568.685 198.214C584.456 198.252 600.489 198.876 616.237 198.128L616.113 200.339C603.025 200.87 589.845 200.68 576.743 200.732L489.962 200.675L416.11 200.77C404.885 200.747 382.39 202.08 372.306 199.16C371.946 198.317 371.944 197.5 371.849 196.589Z"/>
	<path fill="#6A7857" d="M851.167 288.049L851.996 291.788C854.942 302.203 853.529 318.702 853.521 329.836L853.485 376.564L853.484 460.835C853.484 475.37 853.838 490.001 853.404 504.527C853.638 522.239 853.529 539.965 853.534 557.679C853.537 567.467 854.119 577.588 853.332 587.323C853.183 589.156 852.719 590.858 852.126 592.591C851.719 592.602 851.106 592.39 850.702 592.297C849.326 589.407 850.162 538.112 850.151 531.371L850.121 376.442L850.029 322.722C850.015 313.354 849.681 303.842 850.118 294.489C850.221 292.287 850.635 290.182 851.167 288.049Z"/>
	<path fill="#6A7857" d="M716.499 195.11C728.214 193.646 749.465 193.395 760.542 197.135C755.899 199.456 725.475 197.463 716.717 198.154L716.499 195.11Z"/>
	<path fill="#6A7857" d="M228.359 197.805C236.948 192.827 261.571 193.9 271.651 195.354L272.21 196.253L272.098 197.631C270.776 197.992 229.762 198.212 228.359 197.805Z"/>
	<path fill="#A2AA8D" d="M897.06 593.311C898.061 594.449 899.118 595.558 899.962 596.82C900.034 603.187 901.295 620.193 899.299 625.39C898.802 625.877 898.38 626.338 897.78 626.697C895.974 624.135 897.009 598.492 897.06 593.311Z"/>
	<path fill="#A2AA8D" d="M860.364 592.231C865.863 589.13 886.641 589.079 893.37 589.741L896.843 593.017C886.343 592.493 869.774 594.196 860.364 592.231Z"/>
	<path fill="#FCEABC" d="M171.929 378.024C204.564 377.058 237.436 377.886 270.093 377.899L454.131 377.858L688.5 377.897C730.966 377.92 773.572 377.245 816.027 378.121L815.993 597.999C785.532 600.857 750.435 618.433 726.646 637.443C700.831 658.072 677.34 697.154 673.527 730.271C669.186 726.139 666.58 720.466 663.242 715.542C654.518 702.671 644.775 691.219 632.462 681.606C626.018 677.358 619.93 673.194 611.901 673.023C606.768 672.914 601.754 674.561 598.143 678.31C594.759 681.822 593.078 686.603 593.24 691.453C593.765 707.071 607.393 707.689 616.265 716.49C621.666 721.848 625.66 728.429 629.44 734.979C643.22 758.878 651.741 785.442 654.435 812.897C655.464 822.678 655.054 832.72 655.034 842.553C620.969 842.026 586.823 842.506 552.75 842.507L352.793 842.523L275.987 842.53C262.422 842.527 246.275 843.756 233.128 841.468C218.043 838.932 204.111 831.793 193.243 821.028C182.108 809.857 175.561 795.879 173.067 780.393C170.647 765.376 171.86 749.056 171.873 733.821L171.864 656.068L171.929 378.024Z"/>
	<path fill="#54703E" d="M369.948 420.644C462.24 415.289 541.4 485.759 546.765 578.05C552.13 670.341 481.668 749.509 389.378 754.884C297.074 760.26 217.891 689.785 212.525 597.48C207.159 505.175 277.643 426 369.948 420.644Z"/>
	<path fill="#FCEABC" d="M331.76 488.697C337.053 487.879 343.348 488.222 348.681 488.696C363.234 489.989 380.421 495.769 390.064 507.294C393.623 505.139 396.855 502.251 400.285 499.867C409.504 493.46 420.561 490.101 431.658 488.846C451.26 486.628 471.834 491.638 487.254 504.157C503.355 517.229 514.194 537.111 518.377 557.276C519.584 563.092 520.044 569.105 520.651 575.011C517.898 572.399 515.509 569.363 512.863 566.634C506.919 560.505 499.787 554.832 492.194 550.888C481.757 545.467 467.269 543.533 455.965 547.257C448.838 549.606 442.797 555.028 439.436 561.709C433.962 572.593 433.786 589.783 437.623 601.174C445.332 624.063 465.712 622.018 483.862 631.211C489.22 633.925 494.199 638.153 495.945 644.091C498.219 651.823 496.017 660.658 492.267 667.554C479.642 690.775 453.104 706.52 428.443 713.852C410.755 720.416 389.654 721.25 370.991 720.705C344.244 719.923 308.421 709.903 289.827 689.955C283.049 682.684 278.794 674.374 279.214 664.243C280.629 630.084 325.487 631.756 343.166 615.055C351.617 607.072 354.295 596.066 354.633 584.78C354.954 574.092 352.304 562.596 344.601 554.75C337.581 547.598 327.839 545.468 318.164 545.5C290.438 545.591 267.561 562.062 248.834 580.999C249.302 558.475 257.375 536.772 271.741 519.418C287.07 501.132 308.112 490.882 331.76 488.697Z"/>
	<path fill="#32532F" d="M444.403 646.645C446.186 646.791 447.96 647.046 449.572 647.879C452.068 649.169 454.183 652.281 454.923 654.935C455.59 657.33 455.113 659.725 453.822 661.819C448.176 670.979 428.833 677.931 418.931 680.377C394.551 686.401 366.173 683.659 344.558 670.553C340.648 668.151 337.228 664.942 335.687 660.507C334.852 658.106 334.539 655.104 335.734 652.766C341.129 642.207 355.004 653.488 361.429 656.446C366.276 658.678 371.499 660.123 376.746 661.032C395.036 664.316 413.894 661.841 430.717 653.949C435.213 651.81 439.123 648.07 443.955 646.759C444.104 646.718 444.254 646.683 444.403 646.645Z"/>
	<path fill="#32532F" d="M386.278 600.69C392.821 599.617 401.302 600.035 407.761 601.367C414.024 602.659 418.919 605.114 422.454 610.568C422.745 614.682 422.672 617.461 420.222 620.956C416.322 626.518 409.817 628.695 403.466 629.925C393.986 631.845 381.686 630.987 373.348 625.665C369.776 623.386 366.585 619.933 365.843 615.626C365.384 612.965 365.999 610.38 367.657 608.242C371.932 602.728 379.796 601.432 386.278 600.69Z"/>
	<path fill="#32532F" d="M309.476 581.635C317.964 579.599 326.49 584.849 328.493 593.345C330.497 601.84 325.215 610.346 316.712 612.318C308.254 614.279 299.803 609.031 297.81 600.581C295.817 592.13 301.033 583.66 309.476 581.635Z"/>
	<path fill="#32532F" d="M469.746 581.578C472.127 581.496 474.356 581.716 476.533 582.763C479.833 584.349 482.25 587.219 483.414 590.673C484.685 594.444 484.443 598.721 482.607 602.265C480.538 606.259 477.168 608.54 472.966 609.855C470.959 609.826 469.072 609.657 467.199 608.868C463.6 607.356 460.795 604.413 459.457 600.746C458.01 596.855 458.273 592.534 460.183 588.848C462.262 584.88 465.562 582.816 469.746 581.578Z"/>
	<path fill="#54703E" d="M737.411 441.099C738.602 440.992 739.812 440.873 741.008 440.892C745.342 440.961 750.01 443.436 752.986 446.482C756.374 449.904 758.197 454.573 758.024 459.385C757.855 463.327 756.313 466.165 754.2 469.367C749.309 476.779 743.198 483.678 737.711 490.672L709.07 527.531L684.788 558.861C679.859 565.22 675.02 572.601 669.001 577.927C664.527 581.887 658.365 582.937 652.561 582.482C648.922 582.197 645.874 580.868 642.977 578.665C635.984 573.346 620.638 553.053 613.997 545.176C607.957 538.285 595.901 526.988 594.662 517.747C594.027 513.01 595.543 508.019 598.5 504.297C601.555 500.451 605.971 498.126 610.844 497.635C614.459 497.272 618.102 497.967 621.243 499.817C628.912 504.332 641.402 521.494 647.767 529.132C649.912 531.706 652.01 534.734 654.591 536.875C655.813 537.163 655.918 537.376 656.845 536.397C658.598 534.546 660.061 531.931 661.623 529.861L671.932 516.457L710.833 466.099C715.751 459.723 721.575 450.504 727.628 445.357C730.511 442.904 733.814 441.938 737.411 441.099Z"/>
	<path fill="#FCEABC" d="M702.081 802.382C707.463 802.651 712.867 802.187 718.238 801.845C743.741 800.22 768.314 794.678 790.826 782.161C796.257 779.149 801.559 775.91 806.719 772.454C810.638 769.825 814.485 766.837 818.687 764.682C818.134 786.398 812.785 806.828 796.592 822.256C775.683 842.178 753.707 842.546 726.674 842.54L688.277 842.57C690.591 834.011 693.386 825.56 696.034 817.098C697.319 812.993 698.365 807.913 700.403 804.169C700.83 803.386 701.389 802.919 702.081 802.382Z"/>
	<path fill="#32532F" d="M658.948 841.299C667.121 819.409 674.234 796.737 684.691 775.789C705.969 733.164 734.117 711.894 770.852 683.79C783.051 674.457 794.997 664.611 807.405 655.576C809.529 654.029 814.821 650.026 817.468 650.679C820.466 651.419 822.278 655.889 823.679 658.41C816.36 666.663 802.646 676.599 793.87 684.398C761.136 713.487 726.87 745.025 708.551 785.566C706.158 790.861 703.147 796.649 702.081 802.382C701.389 802.919 700.83 803.386 700.403 804.169C698.365 807.913 697.319 812.993 696.034 817.098C693.386 825.56 690.591 834.011 688.277 842.57C684.302 843.274 678.381 841.867 674.236 841.585C669.148 841.244 664.046 841.149 658.948 841.299Z"/>
</svg>
